<svg width="12" height="12" viewBox="0 0 12 12" fill="none" xmlns="http://www.w3.org/2000/svg">
<path d="M6.66294 6.00001L11.8627 0.80023C12.0458 0.61716 12.0458 0.320349 11.8627 0.137302C11.6796 -0.045744 11.3828 -0.0457674 11.1998 0.137302L5.99999 5.33708L0.80023 0.137302C0.61716 -0.0457674 0.320349 -0.0457674 0.137302 0.137302C-0.045744 0.320372 -0.0457674 0.617184 0.137302 0.80023L5.33706 5.99999L0.137302 11.1998C-0.0457674 11.3828 -0.0457674 11.6797 0.137302 11.8627C0.228825 11.9542 0.348802 12 0.468778 12C0.588754 12 0.708707 11.9542 0.800254 11.8627L5.99999 6.66294L11.1997 11.8627C11.2913 11.9542 11.4112 12 11.5312 12C11.6512 12 11.7712 11.9542 11.8627 11.8627C12.0458 11.6796 12.0458 11.3828 11.8627 11.1998L6.66294 6.00001Z" fill="url(#paint0_linear_302_3150)"/>
<defs>
<linearGradient id="paint0_linear_302_3150" x1="1.75234e-07" y1="1.40625" x2="9.74997" y2="12" gradientUnits="userSpaceOnUse">
<stop stop-color="#B2214A"/>
<stop offset="0.986917" stop-color="#6B214A"/>
</linearGradient>
</defs>
</svg>
